<svg id="レイヤー_1" data-name="レイヤー 1" xmlns="http://www.w3.org/2000/svg" viewBox="0 0 522.96 136.39"><defs><style>.cls-1{fill:#4f4c4b;}</style></defs><path class="cls-1" d="M189.28,94a2.75,2.75,0,0,1,.83,1.9,3,3,0,0,1-.7,2,2.3,2.3,0,0,1-1.84.82c-1,0-2-.8-2.92-2.41a33.27,33.27,0,0,1-3.56-9.78A70.29,70.29,0,0,1,180,74q0-5.08,1.14-15.62a28.75,28.75,0,0,1-4.57,4.31,25.47,25.47,0,0,1-15.75,5A26.63,26.63,0,0,1,150,65.46a21.31,21.31,0,0,1-8.45-6.41,23.09,23.09,0,0,1-2.92-4.44l-.12-.26q-1.78,7.88-3.31,16.51A113.88,113.88,0,0,0,133.59,88a46.25,46.25,0,0,0,1,10.28,13.76,13.76,0,0,0,.7,2.1,6.88,6.88,0,0,1,.57,2.35,2.49,2.49,0,0,1-.38,1.27,2.16,2.16,0,0,1-2,1.14,2.76,2.76,0,0,1-2.54-1.65,14.35,14.35,0,0,1-1.21-4.19c-.21-1.52-.36-3.39-.45-5.59q-.5-10.66,2.23-26.8a160.41,160.41,0,0,1,6.66-27.05,14.67,14.67,0,0,1,1.34-3.17,2.28,2.28,0,0,1,2.09-1.14,2.58,2.58,0,0,1,1.91.76,2.43,2.43,0,0,1,.76,1.78,2.51,2.51,0,0,1-.38,1.27,46.63,46.63,0,0,0-3.56,8.89,2.3,2.3,0,0,1,2,1.9A14.76,14.76,0,0,0,149,59.75a21.87,21.87,0,0,0,12,3.36,25.62,25.62,0,0,0,8.07-1.27A18.1,18.1,0,0,0,175.76,58a16.92,16.92,0,0,0,4.44-5.77,35.93,35.93,0,0,0,2.29-7.81,40.05,40.05,0,0,1,.89-4.07,4.09,4.09,0,0,1,1.08-1.65,1.72,1.72,0,0,1,1.46-.51c1.1.26,1.65,1.19,1.65,2.8,0,.17-.13,1.39-.38,3.68q-1,6.09-1.4,9.14a140.74,140.74,0,0,0-1.4,17.53q0,1.91.26,6a76.63,76.63,0,0,0,1.08,9.33,14.73,14.73,0,0,0,2.47,6A14,14,0,0,0,189.28,94Z"/><path class="cls-1" d="M264.72,31.62a17.4,17.4,0,0,1,3.62-.38q3.81,0,3.81,2.54c0,1.18-.32,1.92-.95,2.22a4.33,4.33,0,0,1-2.1.38l-1.52-.06a19.94,19.94,0,0,0-5.4.76c-1.82.51-2.9.81-3.24.89a146.52,146.52,0,0,0-24.07,9.46Q221.36,54,207.38,62.23c-.68.42-1.32.84-1.91,1.27s-1.22.84-1.9,1.27c-.26.17-.7.48-1.34,1a3.17,3.17,0,0,1-1.84.7,2.38,2.38,0,0,1-1.84-.77,2.49,2.49,0,0,1-.7-1.77A2.44,2.44,0,0,1,199,61.72q11.92-7.87,32.06-17.34T262.5,32.13Q262.88,32,264.72,31.62Zm-.19,32.13a2.36,2.36,0,0,1,2.16,1,2.6,2.6,0,0,1,.51,1.65,2.4,2.4,0,0,1-1.28,2.16,3.63,3.63,0,0,1-1.84.38h-1.84a15,15,0,0,0-2.28.38c-.68.17-1.27.3-1.78.38a100.74,100.74,0,0,0-19.69,6l-2.92,1.2a33.41,33.41,0,0,0-4.19,2.1,5.35,5.35,0,0,1-1.14.63,27.08,27.08,0,0,0,5.52,12.13,12.53,12.53,0,0,0,10,4.51q5.46,0,12.58-3.94a7.21,7.21,0,0,1,2.92-1.14,2.17,2.17,0,0,1,1.39.51,2.68,2.68,0,0,1,.89,1.9,2.16,2.16,0,0,1-.76,1.85,14.41,14.41,0,0,1-2.41,1.33,74.27,74.27,0,0,1-7.88,3,22.64,22.64,0,0,1-6.73,1,16.53,16.53,0,0,1-11.43-4.19,25.51,25.51,0,0,1-7.05-11.11,46.69,46.69,0,0,1-2.35-15,49.87,49.87,0,0,1,1.4-12.32c.17-.59.38-1.63.64-3.11a11,11,0,0,1,1.27-3.75A2.39,2.39,0,0,1,230.37,50a2.82,2.82,0,0,1,1.84.7,2.3,2.3,0,0,1,.82,1.84l-.25,1a42.39,42.39,0,0,0-3.3,17q0,2.67.12,3.93,18-8.25,32.64-10.54A16.58,16.58,0,0,1,264.53,63.75Z"/><path class="cls-1" d="M335.71,41.91a5.38,5.38,0,0,1,.57,2.66q0,9-3.94,22.48-3.68,12.7-8.88,19.31-2.55,3.17-5.59,3.17a5.33,5.33,0,0,1-2.42-.51,13.49,13.49,0,0,1-3.93-2.47,39.51,39.51,0,0,1-3.81-4A71.71,71.71,0,0,1,295.64,62.1a53.47,53.47,0,0,1-2.16-6.1q-.76,3.44-2.54,14.1a103,103,0,0,0-1.27,16.76,43.61,43.61,0,0,0,.38,6.23c0,.25.07.8.19,1.65a9.82,9.82,0,0,0,.58,2.22,3.43,3.43,0,0,0,1,1.46c1.19.85,1.78,1.65,1.78,2.41a3,3,0,0,1-.38,1.27,2.15,2.15,0,0,1-2,1.15,4.2,4.2,0,0,1-2.67-1,7.33,7.33,0,0,1-2.79-4.76,57.26,57.26,0,0,1-.64-7.94,123.26,123.26,0,0,1,2-23.11,183.36,183.36,0,0,1,5.59-24.13,16.06,16.06,0,0,1,1.46-3.43,2.59,2.59,0,0,1,2.35-1.4,2.24,2.24,0,0,1,1.72.76,2.57,2.57,0,0,1,.69,1.78,2.37,2.37,0,0,1-.38,1.27,27.8,27.8,0,0,0-3.3,7.49,2.72,2.72,0,0,1,1.78.64,2.17,2.17,0,0,1,.76,1.78,26.91,26.91,0,0,0,2,9.33,84.22,84.22,0,0,0,5.08,10.35,55.06,55.06,0,0,0,5.72,8.51q4.69,5.85,7.11,5.84c1.35,0,2.88-1.52,4.57-4.57a71.79,71.79,0,0,0,4.83-11.18,73.43,73.43,0,0,0,4.06-25c0-2.37.81-3.56,2.41-3.56A2.19,2.19,0,0,1,335.71,41.91Z"/><path class="cls-1" d="M357.62,46.35a81.14,81.14,0,0,0-2.67,21,77.59,77.59,0,0,0,.76,11q2.54,16,10.67,16a10.43,10.43,0,0,0,8.19-3.88,44,44,0,0,0,6.16-9.59,95.85,95.85,0,0,0,8.13-29.59c.17-1.6.34-3.51.51-5.71s.25-4.19.25-6L389.49,37a5.23,5.23,0,0,1,.13-1.39,2.91,2.91,0,0,1,.95-1.59,2.46,2.46,0,0,1,1.59-.57,2.4,2.4,0,0,1,1.52.5,3.37,3.37,0,0,1,1,2.67,8.78,8.78,0,0,1-.13,1.53,8.33,8.33,0,0,0-.12,1.27,155.17,155.17,0,0,1-6.61,35.81q-5.07,15.75-14.35,21.34a13.18,13.18,0,0,1-7.24,2A11,11,0,0,1,358,95.12a22.78,22.78,0,0,1-6.16-12.07,84,84,0,0,1-1.46-16.38,130.52,130.52,0,0,1,1.39-16.89c0-.25.07-.89.19-1.91a13.92,13.92,0,0,1,.83-3.17,2.38,2.38,0,0,1,2.41-1.65,2.31,2.31,0,0,1,1.91,1A2.76,2.76,0,0,1,357.62,46.35Z"/></svg>