<svg id="レイヤー_1" data-name="レイヤー 1" xmlns="http://www.w3.org/2000/svg" viewBox="0 0 522.96 136.39"><defs><style>.cls-1{fill:#4f4c4b;}</style></defs><path class="cls-1" d="M182.61,40.57a5.34,5.34,0,0,1,.58,2.67q0,9-3.94,22.48-3.69,12.7-8.89,19.3-2.55,3.18-5.59,3.18a5.29,5.29,0,0,1-2.41-.51,13.57,13.57,0,0,1-3.94-2.48,37.49,37.49,0,0,1-3.81-4,71.5,71.5,0,0,1-12.06-20.44,50.27,50.27,0,0,1-2.16-6.1c-.51,2.29-1.36,7-2.54,14.1a101.84,101.84,0,0,0-1.27,16.76,42,42,0,0,0,.38,6.22,13.61,13.61,0,0,0,.19,1.65,9.93,9.93,0,0,0,.57,2.23,3.42,3.42,0,0,0,1,1.46c1.18.84,1.77,1.65,1.77,2.41a2.91,2.91,0,0,1-.38,1.27,2.15,2.15,0,0,1-2,1.14,4.21,4.21,0,0,1-2.67-1,7.42,7.42,0,0,1-2.79-4.77A58.55,58.55,0,0,1,132,88.2a122.62,122.62,0,0,1,2-23.12A182.6,182.6,0,0,1,139.62,41a17.07,17.07,0,0,1,1.46-3.43,2.59,2.59,0,0,1,2.35-1.39,2.24,2.24,0,0,1,1.72.76,2.58,2.58,0,0,1,.7,1.78,2.51,2.51,0,0,1-.38,1.27,27.76,27.76,0,0,0-3.31,7.49,2.67,2.67,0,0,1,1.78.64,2.16,2.16,0,0,1,.76,1.77,27.27,27.27,0,0,0,2,9.34,85.64,85.64,0,0,0,5.08,10.35A54.81,54.81,0,0,0,157.53,78q4.69,5.83,7.11,5.84c1.36,0,2.88-1.52,4.58-4.57A70.89,70.89,0,0,0,174,68.13a73.44,73.44,0,0,0,4.07-25c0-2.37.8-3.55,2.41-3.55A2.19,2.19,0,0,1,182.61,40.57Z"/><path class="cls-1" d="M240.33,68.89a2.9,2.9,0,0,1-.63,1.65,3.69,3.69,0,0,1-2.92,1l-2.29-.13c-1.27,0-3.17.09-5.71.26.17,1.35.34,3.39.51,6.09q.5,7.62.5,9.27c0,.6,0,1.42-.06,2.48s-.06,2.73-.06,5c0,2.11-.26,3.51-.76,4.19a2.41,2.41,0,0,1-2,1,2.6,2.6,0,0,1-1.39-.38,2.14,2.14,0,0,1-1.15-2,7.2,7.2,0,0,1,.26-1.65,52.27,52.27,0,0,0,.63-7.75c0-4.48-.3-9.78-.89-15.87q-4.56.51-11.81,1.78a59.92,59.92,0,0,0-8.25,2,1.48,1.48,0,0,1-.64.13A120.16,120.16,0,0,0,200,97c-.17,2.2-.25,3.81-.25,4.83l.12,2a2.54,2.54,0,0,1-.51,1.65,3,3,0,0,1-2.15,1,2.25,2.25,0,0,1-1.59-.64,2.58,2.58,0,0,1-.83-1.65,36.93,36.93,0,0,1,.76-8.76l.38-2.67q1.78-12.57,8.39-35l1-3.43q1.91-6.34,3.18-10.29a54.65,54.65,0,0,1,3.17-7.75q2.55-5.32,5.08-5.33a3.66,3.66,0,0,1,2.67,1.4,19.92,19.92,0,0,1,3.56,7.3c1,3.35,2.11,8.06,3.3,14.16q1.14,5.59,2,13.08,4.18-.37,8.13-.38h1a3.72,3.72,0,0,1,1.53.25A2.36,2.36,0,0,1,240.33,68.89Zm-16.5-1.52-1.28-9.14q-.88-5.59-2.54-12.7c-.76-3.14-1.37-5.38-1.84-6.74s-.91-2-1.33-2q-1.14,0-3.81,7.62-2.42,6.85-5.46,17.15c-1.19,4.06-2,7.15-2.54,9.27A183.66,183.66,0,0,1,223.83,67.37Z"/><path class="cls-1" d="M311.65,92.64a2.78,2.78,0,0,1,.82,1.91,2.93,2.93,0,0,1-.7,2,2.28,2.28,0,0,1-1.84.82c-1,0-2-.8-2.92-2.41a33.27,33.27,0,0,1-3.56-9.78,70.32,70.32,0,0,1-1.14-12.45q0-5.07,1.14-15.62a28.76,28.76,0,0,1-4.57,4.32,25.5,25.5,0,0,1-15.75,4.95,26.82,26.82,0,0,1-10.73-2.22A21.28,21.28,0,0,1,264,57.72,22.65,22.65,0,0,1,261,53.27l-.13-.25q-1.79,7.88-3.3,16.51A113.77,113.77,0,0,0,256,86.67,46.33,46.33,0,0,0,257,97a14.14,14.14,0,0,0,.7,2.1,6.83,6.83,0,0,1,.57,2.35,2.42,2.42,0,0,1-.38,1.27,2.15,2.15,0,0,1-2,1.14,2.77,2.77,0,0,1-2.54-1.65A14.67,14.67,0,0,1,252.08,98q-.32-2.3-.44-5.59-.51-10.67,2.22-26.8a159.13,159.13,0,0,1,6.67-27.05,14.22,14.22,0,0,1,1.33-3.17,2.29,2.29,0,0,1,2.1-1.15,2.61,2.61,0,0,1,1.9.76,2.45,2.45,0,0,1,.76,1.78,2.37,2.37,0,0,1-.38,1.27,47.35,47.35,0,0,0-3.55,8.89,2.3,2.3,0,0,1,2,1.91,14.77,14.77,0,0,0,6.67,9.59,21.82,21.82,0,0,0,12,3.36,25.6,25.6,0,0,0,8.06-1.27,18,18,0,0,0,6.67-3.81,17,17,0,0,0,4.44-5.78,34.53,34.53,0,0,0,2.29-7.81c.34-1.86.64-3.21.89-4.06a4,4,0,0,1,1.08-1.65,1.69,1.69,0,0,1,1.46-.51c1.1.25,1.65,1.19,1.65,2.79,0,.17-.13,1.4-.38,3.69-.68,4.06-1.14,7.11-1.4,9.14A140.17,140.17,0,0,0,306.76,70q0,1.9.25,6a76.63,76.63,0,0,0,1.08,9.33,14.56,14.56,0,0,0,2.48,6A9.67,9.67,0,0,0,311.65,92.64Z"/><path class="cls-1" d="M387.08,30.29a17.43,17.43,0,0,1,3.62-.39q3.81,0,3.81,2.54c0,1.19-.32,1.93-.95,2.23a4.43,4.43,0,0,1-2.1.38c-.76,0-1.27-.07-1.52-.07a20,20,0,0,0-5.4.77l-3.24.89a145.22,145.22,0,0,0-24.06,9.46q-13.53,6.54-27.5,14.79c-.68.43-1.31.85-1.9,1.27s-1.23.85-1.91,1.27l-1.33.95a3.12,3.12,0,0,1-1.84.7,2.35,2.35,0,0,1-1.84-.76,2.53,2.53,0,0,1-.7-1.78,2.45,2.45,0,0,1,1.14-2.16q11.94-7.86,32.07-17.33t31.43-12.26C385.11,30.71,385.85,30.54,387.08,30.29Zm-.19,32.13a2.35,2.35,0,0,1,2.16,1,2.58,2.58,0,0,1,.51,1.65,2.4,2.4,0,0,1-1.27,2.16,3.58,3.58,0,0,1-1.84.38h-1.84a18.51,18.51,0,0,0-2.29.38c-.68.17-1.27.3-1.78.39a101.51,101.51,0,0,0-19.68,6l-2.92,1.21a31.63,31.63,0,0,0-4.2,2.1,4.91,4.91,0,0,1-1.14.63q1.65,7.62,5.53,12.13a12.52,12.52,0,0,0,10,4.51c3.63,0,7.83-1.31,12.57-3.94a7.26,7.26,0,0,1,2.92-1.14,2.2,2.2,0,0,1,1.4.51,2.66,2.66,0,0,1,.89,1.9,2.14,2.14,0,0,1-.77,1.84,13.91,13.91,0,0,1-2.41,1.34,71.77,71.77,0,0,1-7.87,3,22.75,22.75,0,0,1-6.73,1,16.57,16.57,0,0,1-11.43-4.19,25.39,25.39,0,0,1-7.05-11.11,46.47,46.47,0,0,1-2.35-15,49.89,49.89,0,0,1,1.39-12.32c.17-.59.39-1.63.64-3.11A11.17,11.17,0,0,1,350.57,50a2.39,2.39,0,0,1,2.16-1.27,2.75,2.75,0,0,1,1.84.7,2.3,2.3,0,0,1,.83,1.84l-.26,1a42.38,42.38,0,0,0-3.3,17c0,1.78,0,3.1.13,3.94Q370,65,384.61,62.67A14.9,14.9,0,0,1,386.89,62.42Z"/></svg>