<svg id="レイヤー_1" data-name="レイヤー 1" xmlns="http://www.w3.org/2000/svg" viewBox="0 0 522.96 136.39"><defs><style>.cls-1{fill:#4f4c4b;}</style></defs><path class="cls-1" d="M172,71.5a80.81,80.81,0,0,1-12.26,16.7A57.72,57.72,0,0,1,154,93.66a59.51,59.51,0,0,1-6,4.57c-.17.09-.63.38-1.39.89a5.22,5.22,0,0,1-2.42.89h-.25a11.62,11.62,0,0,0,.89,2.67,3.17,3.17,0,0,1,.38,1.39,2.71,2.71,0,0,1-.7,1.91,2.38,2.38,0,0,1-1.84.76,2.3,2.3,0,0,1-2-.95,5.53,5.53,0,0,1-.95-2.23,113,113,0,0,1-2.16-18q-.37-9.52-.38-19,0-11.3.63-19.05c0-.42,0-1.16.13-2.22a23.7,23.7,0,0,1,.38-2.86,14.91,14.91,0,0,0,.19-2,3.41,3.41,0,0,1,.7-2.09,2.42,2.42,0,0,1,1.91-.89,2.63,2.63,0,0,1,2.09,1,2.23,2.23,0,0,1,.45,2.22,64.43,64.43,0,0,0-1.91,13.59q-.37,5.72-.38,12.45,0,11.43,1,22.22.14,2,.64,6.35l.25-.12a56.15,56.15,0,0,0,8.39-5.59,65,65,0,0,0,14.6-17q6-9.65,6-16.76a15.52,15.52,0,0,0-3.87-10.29,19.41,19.41,0,0,0-9.46-6.22,18.9,18.9,0,0,0-5.21-.77,21,21,0,0,0-6.73,1.15,2.38,2.38,0,0,1-2.48-.38A2.73,2.73,0,0,1,143.37,37,2.09,2.09,0,0,1,145,34.86a21,21,0,0,1,7.37-1.27,25.37,25.37,0,0,1,11.68,2.85,24.49,24.49,0,0,1,9.08,7.88,19,19,0,0,1,3.5,11.11Q176.65,62.93,172,71.5Z"/><path class="cls-1" d="M232.27,68.64a2.85,2.85,0,0,1-.64,1.65,3.68,3.68,0,0,1-2.92,1l-2.28-.13c-1.27,0-3.18.08-5.72.25q.25,2,.51,6.1.51,7.62.51,9.27c0,.59,0,1.42-.06,2.48s-.07,2.73-.07,5c0,2.12-.25,3.52-.76,4.19a2.42,2.42,0,0,1-2,1,2.7,2.7,0,0,1-1.4-.38,2.15,2.15,0,0,1-1.14-2,7,7,0,0,1,.25-1.65,52.57,52.57,0,0,0,.64-7.75q0-6.73-.89-15.88-4.58.51-11.81,1.78a63.5,63.5,0,0,0-8.26,2,1.34,1.34,0,0,1-.63.13,121.49,121.49,0,0,0-3.69,21c-.17,2.2-.25,3.81-.25,4.82l.13,2a2.59,2.59,0,0,1-.51,1.66,3.07,3.07,0,0,1-2.16,1,2.32,2.32,0,0,1-1.59-.63,2.61,2.61,0,0,1-.82-1.65,36.44,36.44,0,0,1,.76-8.77l.38-2.66q1.77-12.58,8.38-35.06l1-3.43q1.91-6.35,3.17-10.28A55.41,55.41,0,0,1,203.57,36c1.69-3.56,3.38-5.33,5.08-5.33a3.61,3.61,0,0,1,2.66,1.39,19.83,19.83,0,0,1,3.56,7.31q1.53,5,3.3,14.16,1.14,5.58,2,13.08c2.79-.26,5.5-.38,8.12-.38h1a3.51,3.51,0,0,1,1.52.25A2.37,2.37,0,0,1,232.27,68.64Zm-16.51-1.52L214.49,58q-.88-5.58-2.54-12.7c-.76-3.13-1.38-5.37-1.84-6.73s-.91-2-1.34-2q-1.14,0-3.81,7.62-2.4,6.85-5.46,17.14-1.77,6.1-2.54,9.27A183.26,183.26,0,0,1,215.76,67.12Z"/><path class="cls-1" d="M309.55,41.14a2.41,2.41,0,0,1,2,2.48c0,1.61-.85,2.41-2.54,2.41a10.62,10.62,0,0,1-1.65-.25,13.72,13.72,0,0,0-4.32-.64c-.68,0-2,.09-4.06.26A68.23,68.23,0,0,0,287,46.8a2.18,2.18,0,0,1-.13.88,19.31,19.31,0,0,0-.76,6q0,2.3.25,6.61.39,9.13,1.59,19.56A135.36,135.36,0,0,0,291.2,98.1a2.75,2.75,0,0,1-.57,2.61,2.9,2.9,0,0,1-2.23,1.08,2.32,2.32,0,0,1-2-1.27q-.89-1.39-1.14-5.34c-.26-3.64-.53-6.9-.83-9.78s-.53-5.29-.69-7.24Q281.79,60,281.8,52.89a31.56,31.56,0,0,1,.13-3.55,9.34,9.34,0,0,1,.12-1.66q-6.46,1.41-17.14,4.32-7.25,1.91-17.15,5.08c-.59.17-1.61.53-3,1.08a10.52,10.52,0,0,1-3.56.83,2.21,2.21,0,0,1-1.78-.76,2.91,2.91,0,0,1-.63-1.91,2.5,2.5,0,0,1,.5-1.46,2.58,2.58,0,0,1,1.4-1q5.72-1.53,13.46-3.69,14.61-3.93,22.93-5.84t17.33-3.05a97.44,97.44,0,0,1,10.16-.76A18.45,18.45,0,0,1,309.55,41.14Z"/><path class="cls-1" d="M382.32,30a18.11,18.11,0,0,1,3.62-.38q3.81,0,3.81,2.54c0,1.19-.32,1.93-.95,2.22a4.22,4.22,0,0,1-2.1.38l-1.52-.06a19.94,19.94,0,0,0-5.4.76c-1.82.51-2.9.81-3.24.89a146.52,146.52,0,0,0-24.07,9.46Q339,52.38,325,60.64c-.68.42-1.31.85-1.91,1.27s-1.22.85-1.9,1.27l-1.34.95a3.1,3.1,0,0,1-1.84.7,2.38,2.38,0,0,1-1.84-.76,2.58,2.58,0,0,1-.7-1.78,2.44,2.44,0,0,1,1.15-2.16q11.92-7.87,32.06-17.34T380.1,30.54Q380.48,30.42,382.32,30Zm-.19,32.13a2.36,2.36,0,0,1,2.16,1,2.54,2.54,0,0,1,.51,1.65A2.41,2.41,0,0,1,383.53,67a3.7,3.7,0,0,1-1.85.38h-1.84a15.24,15.24,0,0,0-2.28.38c-.68.17-1.27.3-1.78.38a100.74,100.74,0,0,0-19.69,6l-2.92,1.21A32.08,32.08,0,0,0,349,77.4a6,6,0,0,1-1.14.64,27.14,27.14,0,0,0,5.52,12.13,12.57,12.57,0,0,0,10,4.5q5.46,0,12.58-3.93a7.27,7.27,0,0,1,2.92-1.15,2.23,2.23,0,0,1,1.39.51,2.66,2.66,0,0,1,.89,1.91,2.15,2.15,0,0,1-.76,1.84,14.41,14.41,0,0,1-2.41,1.33,72.15,72.15,0,0,1-7.88,3,22.65,22.65,0,0,1-6.73,1,16.57,16.57,0,0,1-11.43-4.19,25.6,25.6,0,0,1-7-11.12,46.69,46.69,0,0,1-2.35-15,49.93,49.93,0,0,1,1.4-12.32c.17-.59.38-1.62.64-3.11a10.82,10.82,0,0,1,1.27-3.74A2.37,2.37,0,0,1,348,48.45a2.81,2.81,0,0,1,1.84.69,2.3,2.3,0,0,1,.82,1.85l-.25,1a42.42,42.42,0,0,0-3.3,17c0,1.78,0,3.09.12,3.94q18-8.26,32.64-10.54A15.45,15.45,0,0,1,382.13,62.16Z"/></svg>