<svg id="レイヤー_1" data-name="レイヤー 1" xmlns="http://www.w3.org/2000/svg" viewBox="0 0 522.96 136.39"><defs><style>.cls-1{fill:#4f4c4b;}</style></defs><path class="cls-1" d="M166.61,34.73a2.63,2.63,0,0,1-.76,1.84,2.13,2.13,0,0,1-1.91.7l-2.41-.13q-7.49,0-18.16,3.56A145.06,145.06,0,0,0,123.56,49a97,97,0,0,0-10.1,6.1,31.34,31.34,0,0,0-6.92,6.1,3.65,3.65,0,0,0-.76,1.9,4.08,4.08,0,0,0,1.14,2.29,25.34,25.34,0,0,0,8,5.84,85.26,85.26,0,0,0,12.83,5.71q6,2,15,4.2a4.72,4.72,0,0,1,2.41,1.2,3,3,0,0,1,1,2.22,4.07,4.07,0,0,1-.26,1.15Q144.26,90,129,94.93c-3.81,1.18-7.11,2.12-9.91,2.79l-5,1c-1.78.25-2.79.38-3,.38A3.62,3.62,0,0,1,110,99a2.05,2.05,0,0,1-1.91-2.16,2.72,2.72,0,0,1,.83-2,3.25,3.25,0,0,1,2-1,58.27,58.27,0,0,0,10.92-1.52q4.44-1.14,10.29-3.24a38.31,38.31,0,0,0,8.38-3.87l-9.27-2.54a132.43,132.43,0,0,1-13.59-5.4,54.86,54.86,0,0,1-11.18-6.41q-5.32-4.2-5.33-7.88t5.21-8.25A75.38,75.38,0,0,1,119.5,46,147.63,147.63,0,0,1,140.58,37a81.46,81.46,0,0,1,20.19-4.63l2.41-.13c1.61,0,2.67.47,3.18,1.4A4,4,0,0,1,166.61,34.73Z"/><path class="cls-1" d="M241.35,40.89a2.41,2.41,0,0,1,2,2.48c0,1.61-.85,2.41-2.54,2.41a10,10,0,0,1-1.65-.26,13.73,13.73,0,0,0-4.32-.63c-.68,0-2,.09-4.06.25a70.19,70.19,0,0,0-11.94,1.4,2.07,2.07,0,0,1-.13.89,19.22,19.22,0,0,0-.76,6c0,1.52.08,3.73.25,6.6q.39,9.15,1.59,19.56A138.75,138.75,0,0,0,223,97.85a2.73,2.73,0,0,1-.57,2.6,2.9,2.9,0,0,1-2.22,1.08,2.3,2.3,0,0,1-2-1.27q-.88-1.4-1.14-5.33c-.25-3.64-.53-6.9-.82-9.78s-.53-5.29-.7-7.24q-1.9-18.16-1.91-25.27a31.77,31.77,0,0,1,.13-3.56,8.2,8.2,0,0,1,.13-1.65q-6.48,1.4-17.15,4.32-7.23,1.91-17.14,5.08c-.6.17-1.61.53-3,1.08a10.46,10.46,0,0,1-3.56.82,2.2,2.2,0,0,1-1.78-.76,2.88,2.88,0,0,1-.63-1.9,2.42,2.42,0,0,1,.51-1.46,2.48,2.48,0,0,1,1.39-1q5.72-1.51,13.47-3.68,14.6-3.93,22.92-5.84t17.34-3.05a94.54,94.54,0,0,1,10.16-.76A18.37,18.37,0,0,1,241.35,40.89Z"/><path class="cls-1" d="M296.41,68.39a3,3,0,0,1-.64,1.65,3.69,3.69,0,0,1-2.92,1l-2.29-.12c-1.27,0-3.17.08-5.71.25.17,1.35.34,3.39.51,6.09.33,5.08.5,8.18.5,9.28,0,.59,0,1.42-.06,2.47s-.06,2.73-.06,5c0,2.12-.26,3.51-.76,4.19a2.42,2.42,0,0,1-2,1,2.69,2.69,0,0,1-1.39-.38,2.16,2.16,0,0,1-1.15-2,7.2,7.2,0,0,1,.26-1.65,52.27,52.27,0,0,0,.63-7.75q0-6.72-.89-15.87-4.56.51-11.81,1.78a61.4,61.4,0,0,0-8.25,2,1.35,1.35,0,0,1-.64.13,120.32,120.32,0,0,0-3.68,21c-.17,2.2-.25,3.81-.25,4.83l.12,2a2.54,2.54,0,0,1-.51,1.65,3,3,0,0,1-2.15,1,2.25,2.25,0,0,1-1.59-.64,2.58,2.58,0,0,1-.83-1.65,36.93,36.93,0,0,1,.76-8.76l.39-2.67q1.77-12.57,8.38-35.05l1-3.43q1.9-6.35,3.18-10.29a54.53,54.53,0,0,1,3.17-7.74q2.55-5.34,5.08-5.34a3.66,3.66,0,0,1,2.67,1.4,19.92,19.92,0,0,1,3.56,7.3q1.51,5,3.3,14.16,1.14,5.59,2,13.08,4.19-.37,8.13-.38h1a3.54,3.54,0,0,1,1.53.26A2.35,2.35,0,0,1,296.41,68.39ZM279.9,66.86l-1.27-9.14q-.9-5.59-2.54-12.7c-.77-3.13-1.38-5.38-1.85-6.73s-.91-2-1.33-2q-1.14,0-3.81,7.62-2.42,6.87-5.46,17.15c-1.19,4.06-2,7.16-2.54,9.27A183.66,183.66,0,0,1,279.9,66.86Z"/><path class="cls-1" d="M358.13,59.88a2.71,2.71,0,0,1-.57,1.65,2.27,2.27,0,0,1-1.59.89h-.38a8.36,8.36,0,0,1-1.65-.19,7.81,7.81,0,0,0-1.65-.19,69.12,69.12,0,0,0-11.62,1q-5.66.94-13.53,3a9.47,9.47,0,0,0-2,.83,9.71,9.71,0,0,1-2,.82,111.13,111.13,0,0,0,1.46,15.5,36,36,0,0,0,3.36,11c.09.17.3.53.64,1.08A3.29,3.29,0,0,1,329,97a2.4,2.4,0,0,1-.5,1.52,2.31,2.31,0,0,1-1.91,1,2.45,2.45,0,0,1-2.16-1.14,16.73,16.73,0,0,1-2.35-5,58.7,58.7,0,0,1-1.46-6.67,147.93,147.93,0,0,1-2-25,96.18,96.18,0,0,1,1.78-20.19c.08-.25.19-.7.32-1.33a4.71,4.71,0,0,1,.57-1.59q-5.85,1-8.64,1.65a15.36,15.36,0,0,0-2.22.64,7.75,7.75,0,0,1-2.48.5,2.79,2.79,0,0,1-1.78-.5,2.35,2.35,0,0,1-1.14-2,2.71,2.71,0,0,1,.57-1.65,2.29,2.29,0,0,1,1.59-.89,273.94,273.94,0,0,1,45.85-3.81,9.94,9.94,0,0,1,3.49.51,2.07,2.07,0,0,1,1.33,2.16,2.5,2.5,0,0,1-.82,1.91,2.84,2.84,0,0,1-2,.76q-.25,0-2.79-.51a49.33,49.33,0,0,0-9.28-.76,122.47,122.47,0,0,0-17.65,1.4,2.41,2.41,0,0,1,.76,1.77,4,4,0,0,1-.25,1.15A18.94,18.94,0,0,0,324,46.6a78.63,78.63,0,0,0-.76,7.94q-.12,2.41-.12,7.88,7.74-2.16,14-3.43a105.26,105.26,0,0,1,13.27-1.78l2.92-.13a8.79,8.79,0,0,1,3.43.51A2.17,2.17,0,0,1,358.13,59.88Z"/><path class="cls-1" d="M420.61,59.88a2.71,2.71,0,0,1-.57,1.65,2.25,2.25,0,0,1-1.59.89h-.38a8.36,8.36,0,0,1-1.65-.19,7.67,7.67,0,0,0-1.65-.19,69.2,69.2,0,0,0-11.62,1q-5.65.94-13.53,3a9.69,9.69,0,0,0-2,.83,9.5,9.5,0,0,1-2,.82A112.67,112.67,0,0,0,387,83.12a36,36,0,0,0,3.36,11c.09.17.3.53.64,1.08a3.21,3.21,0,0,1,.51,1.71,2.35,2.35,0,0,1-.51,1.52,2.3,2.3,0,0,1-1.91,1A2.43,2.43,0,0,1,387,98.36a16.49,16.49,0,0,1-2.35-5,56.61,56.61,0,0,1-1.46-6.67,146.88,146.88,0,0,1-2-25,96.18,96.18,0,0,1,1.78-20.19c.08-.25.19-.7.32-1.33a5.18,5.18,0,0,1,.57-1.59c-3.9.68-6.77,1.23-8.64,1.65a15.73,15.73,0,0,0-2.22.64,7.7,7.7,0,0,1-2.47.5,2.75,2.75,0,0,1-1.78-.5,2.36,2.36,0,0,1-1.15-2,2.66,2.66,0,0,1,.58-1.65,2.27,2.27,0,0,1,1.58-.89,273.94,273.94,0,0,1,45.85-3.81A9.94,9.94,0,0,1,419,33a2.07,2.07,0,0,1,1.34,2.16,2.51,2.51,0,0,1-.83,1.91,2.84,2.84,0,0,1-2,.76q-.26,0-2.79-.51a49.29,49.29,0,0,0-9.27-.76,122.5,122.5,0,0,0-17.66,1.4,2.42,2.42,0,0,1,.77,1.77,4.07,4.07,0,0,1-.26,1.15,18.65,18.65,0,0,0-1.9,5.77,75.45,75.45,0,0,0-.77,7.94q-.12,2.41-.12,7.88,7.74-2.16,14-3.43a105.51,105.51,0,0,1,13.27-1.78l2.92-.13a8.79,8.79,0,0,1,3.43.51A2.17,2.17,0,0,1,420.61,59.88Z"/></svg>