<svg id="レイヤー_1" data-name="レイヤー 1" xmlns="http://www.w3.org/2000/svg" viewBox="0 0 522.96 136.39"><defs><style>.cls-1{fill:#4f4c4b;}</style></defs><path class="cls-1" d="M189.92,43a6.67,6.67,0,0,1,3.68,1,2.44,2.44,0,0,1,1,2.73,2.14,2.14,0,0,1-2.41,1.65,10.62,10.62,0,0,1-1.65-.25,19.88,19.88,0,0,0-4.57-.51l-3.81.13q-5.34.38-11.94,1.39A2.24,2.24,0,0,1,170,50a19.31,19.31,0,0,0-.76,6q0,2.3.25,6.61.39,9.14,1.59,19.55a135.24,135.24,0,0,0,3.24,18.29,2.75,2.75,0,0,1-.57,2.61,2.9,2.9,0,0,1-2.22,1.08,2.32,2.32,0,0,1-2-1.27c-.59-.94-1-2.71-1.14-5.34q-.37-5.46-.83-9.78c-.29-2.87-.53-5.29-.69-7.24Q165,62.36,165,55.24a31.89,31.89,0,0,1,.13-3.56,7.17,7.17,0,0,1,.12-1.52q-6.35,1.28-17.14,4.19l-2.67.76q-10.78,3.18-14.48,4.32l-2.41.76a19.7,19.7,0,0,1-4.06,1.15,2.37,2.37,0,0,1-1.84-.77,2.67,2.67,0,0,1-.7-1.9,2.59,2.59,0,0,1,1.9-2.41q6-1.4,14.23-3.69,12.19-3.3,21.33-5.46t18.17-3.43a89.64,89.64,0,0,1,9.65-.76Z"/><path class="cls-1" d="M241.92,95.37a2.35,2.35,0,0,1-.82,1.78,2.8,2.8,0,0,1-2,.76,21.68,21.68,0,0,1-2.67-.12c-.42,0-1.06,0-1.9-.07a11.19,11.19,0,0,0-2.16.07,79.57,79.57,0,0,0-9.91,1.14c-1.86.42-4.53.85-8,1.27-.42.08-.93.21-1.52.38a5.68,5.68,0,0,1-1.53.25,2.16,2.16,0,0,1-1.77-.76,2.67,2.67,0,0,1-.64-1.78,2.92,2.92,0,0,1,.51-1.65,2,2,0,0,1,1.52-.89q2.67-.63,10.8-1.52a15.46,15.46,0,0,1-.13-2.41v-8Q221.73,73,223,55l.25-3.43q.25-8,1.78-12.19a143.26,143.26,0,0,0-16.89,2.92l-2,.69a3.34,3.34,0,0,1-2.09.2,2.42,2.42,0,0,1-1.4-1,2.74,2.74,0,0,1-.51-1.52,2.6,2.6,0,0,1,.51-1.59,2,2,0,0,1,1.4-.83q3.81-.88,13.33-2.16t14.23-1.65a21.77,21.77,0,0,1,3-.25,4.91,4.91,0,0,1,1.78.25,2.26,2.26,0,0,1,1.65,2.42,2.35,2.35,0,0,1-1.78,2.54,2.74,2.74,0,0,1-1,.12,9.13,9.13,0,0,1-1.84-.19,9.49,9.49,0,0,0-1.72-.19h-1.14a1.82,1.82,0,0,1-.63,1.27c-.09.17-.22.47-.39.89a10.11,10.11,0,0,0-.38,1.14A67.88,67.88,0,0,0,227.83,50q-.77,5.34-1.27,16-.51,8.88-.51,14.6a94.17,94.17,0,0,0,.76,12.45v.63l7.75-.63c2-.26,3.3-.38,3.81-.38a4,4,0,0,1,2.66.76A2.64,2.64,0,0,1,241.92,95.37Z"/><path class="cls-1" d="M315.65,94a2.74,2.74,0,0,1,.82,1.9,2.93,2.93,0,0,1-.7,2,2.28,2.28,0,0,1-1.84.82c-1,0-2-.8-2.92-2.41a33.27,33.27,0,0,1-3.56-9.78A70.29,70.29,0,0,1,306.31,74q0-5.08,1.14-15.62a28.32,28.32,0,0,1-4.57,4.31,25.45,25.45,0,0,1-15.75,5,26.66,26.66,0,0,1-10.73-2.23A21.28,21.28,0,0,1,268,59.05,22.62,22.62,0,0,1,265,54.61l-.13-.26q-1.79,7.88-3.3,16.51A113.88,113.88,0,0,0,260,88a46.29,46.29,0,0,0,1,10.28,13.76,13.76,0,0,0,.7,2.1,6.88,6.88,0,0,1,.57,2.35,2.39,2.39,0,0,1-.38,1.27,2.15,2.15,0,0,1-2,1.14,2.77,2.77,0,0,1-2.54-1.65,14.67,14.67,0,0,1-1.21-4.19c-.21-1.52-.36-3.39-.44-5.59q-.51-10.66,2.22-26.8a159.37,159.37,0,0,1,6.67-27.05,14.22,14.22,0,0,1,1.33-3.17,2.3,2.3,0,0,1,2.1-1.14,2.57,2.57,0,0,1,1.9.76,2.4,2.4,0,0,1,.38,3,46.77,46.77,0,0,0-3.55,8.89,2.29,2.29,0,0,1,2,1.9,14.74,14.74,0,0,0,6.67,9.59,21.82,21.82,0,0,0,12,3.36,25.6,25.6,0,0,0,8.06-1.27A18,18,0,0,0,302.12,58a16.92,16.92,0,0,0,4.44-5.77,34.85,34.85,0,0,0,2.29-7.81c.34-1.87.64-3.22.89-4.07a4.09,4.09,0,0,1,1.08-1.65,1.72,1.72,0,0,1,1.46-.51c1.1.26,1.65,1.19,1.65,2.8,0,.17-.13,1.39-.38,3.68-.68,4.06-1.14,7.11-1.4,9.14a140.44,140.44,0,0,0-1.39,17.53q0,1.91.25,6a76.63,76.63,0,0,0,1.08,9.33,14.6,14.6,0,0,0,2.48,6A11.23,11.23,0,0,0,315.65,94Z"/><path class="cls-1" d="M391.08,31.62a17.4,17.4,0,0,1,3.62-.38q3.81,0,3.81,2.54c0,1.18-.32,1.92-.95,2.22a4.31,4.31,0,0,1-2.1.38l-1.52-.06a19.94,19.94,0,0,0-5.4.76c-1.82.51-2.9.81-3.24.89a146.1,146.1,0,0,0-24.06,9.46q-13.53,6.54-27.5,14.8c-.68.42-1.31.84-1.9,1.27s-1.23.84-1.91,1.27c-.25.17-.7.48-1.33,1a3.19,3.19,0,0,1-1.84.7,2.36,2.36,0,0,1-1.84-.77,2.49,2.49,0,0,1-.7-1.77,2.45,2.45,0,0,1,1.14-2.16q11.94-7.87,32.07-17.34t31.43-12.25Q389.24,32,391.08,31.62Zm-.19,32.13a2.34,2.34,0,0,1,2.16,1,2.54,2.54,0,0,1,.51,1.65,2.41,2.41,0,0,1-1.27,2.16,3.69,3.69,0,0,1-1.84.38h-1.84a15.39,15.39,0,0,0-2.29.38c-.68.17-1.27.3-1.78.38a100.86,100.86,0,0,0-19.68,6l-2.92,1.2a32.89,32.89,0,0,0-4.2,2.1,4.91,4.91,0,0,1-1.14.63q1.65,7.62,5.53,12.13a12.52,12.52,0,0,0,10,4.51c3.63,0,7.83-1.31,12.57-3.94a7.26,7.26,0,0,1,2.92-1.14,2.2,2.2,0,0,1,1.4.51,2.68,2.68,0,0,1,.89,1.9,2.16,2.16,0,0,1-.77,1.85,14,14,0,0,1-2.41,1.33,74.2,74.2,0,0,1-7.87,3,22.74,22.74,0,0,1-6.73,1,16.53,16.53,0,0,1-11.43-4.19,25.33,25.33,0,0,1-7.05-11.11,46.42,46.42,0,0,1-2.35-15,49.89,49.89,0,0,1,1.39-12.32c.17-.59.39-1.63.64-3.11a11.17,11.17,0,0,1,1.27-3.75A2.41,2.41,0,0,1,356.73,50a2.8,2.8,0,0,1,1.84.7,2.3,2.3,0,0,1,.83,1.84l-.26,1a42.39,42.39,0,0,0-3.3,17c0,1.78,0,3.09.13,3.93Q374,66.29,388.61,64A16.32,16.32,0,0,1,390.89,63.75Z"/></svg>