<svg id="レイヤー_1" data-name="レイヤー 1" xmlns="http://www.w3.org/2000/svg" viewBox="0 0 522.96 136.39"><defs><style>.cls-1{fill:#4f4c4b;}</style></defs><path class="cls-1" d="M91.71,77.24a2,2,0,0,1-.65,1.42,1.79,1.79,0,0,1-1.31.54,3.41,3.41,0,0,1-1.85-.76,23,23,0,0,0-3.27-2.29A20.85,20.85,0,0,0,77,73.86a99.55,99.55,0,0,0-10.14-.43c-.36,0-1.07,0-2.12.16a29.07,29.07,0,0,1-3,.16,11,11,0,0,1-1.85-.11l1,9.38q.65,5.24,1.25,8.61a39.2,39.2,0,0,0,1.8,6.65c.14.29.49.85,1,1.69a4,4,0,0,1,.82,2,2,2,0,0,1-.6,1.53,2,2,0,0,1-1.36.55,2.5,2.5,0,0,1-1.85-.77,11.32,11.32,0,0,1-2.4-4.74,80,80,0,0,1-1.75-8.88A282.53,282.53,0,0,1,55.31,58c-.15-3.78-.22-6.9-.22-9.38q0-6,.54-12.31c0-.15,0-.58.11-1.31a3.76,3.76,0,0,1,.66-1.85,2,2,0,0,1,1.52-.77,2.35,2.35,0,0,1,1.75.82,2,2,0,0,1,.54,1.91l-.32,1.2a24.44,24.44,0,0,1,9.26-1.64A24.5,24.5,0,0,1,80.6,37.18q4.91,2.57,4.9,7.69a7.79,7.79,0,0,1-.11,1.42,19.64,19.64,0,0,1-4,9.42,66.4,66.4,0,0,1-8.33,9,40.18,40.18,0,0,1-7.42,5.23c2.4-.07,5,0,7.85.11a69.65,69.65,0,0,1,9.43,1.31,17.94,17.94,0,0,1,7,3.16A3.56,3.56,0,0,1,91.71,77.24ZM64.57,66.61q1.31-.81,3.71-2.56a42.76,42.76,0,0,0,9.81-10q3.7-5.34,3.7-8.72,0-3.15-3.48-5A17.52,17.52,0,0,0,70,38.44a19.69,19.69,0,0,0-6.32,1c-.36.15-.87.38-1.53.71a6.14,6.14,0,0,1-1.63.6,2.28,2.28,0,0,1-1.2-.22c-.15,1.45-.22,3.6-.22,6.43-.07.73-.11,1.78-.11,3.16q-.1,8,.55,18.53a5.69,5.69,0,0,1,1.09-.38l1-.27A13.73,13.73,0,0,0,64.57,66.61Z"/><path class="cls-1" d="M153.9,35.93a15.14,15.14,0,0,1,3.1-.33c2.18,0,3.27.73,3.27,2.18,0,1-.27,1.66-.81,1.91a3.62,3.62,0,0,1-1.8.33c-.66,0-1.09-.06-1.31-.06a17,17,0,0,0-4.63.66l-2.78.76a125.7,125.7,0,0,0-20.66,8.12q-11.61,5.61-23.6,12.7c-.58.36-1.12.73-1.63,1.09s-1.06.73-1.64,1.09c-.21.15-.6.42-1.14.82a2.7,2.7,0,0,1-1.58.6,2,2,0,0,1-1.58-.66,2.16,2.16,0,0,1-.6-1.52,2.12,2.12,0,0,1,1-1.86A227.06,227.06,0,0,1,125,46.88q17.28-8.12,27-10.51C152.21,36.29,152.84,36.15,153.9,35.93Zm-.17,27.58a2,2,0,0,1,1.86.87A2.21,2.21,0,0,1,156,65.8a2,2,0,0,1-1.09,1.85,3.07,3.07,0,0,1-1.58.33h-1.58a14.08,14.08,0,0,0-2,.32q-.87.23-1.53.33a86.92,86.92,0,0,0-16.89,5.12l-2.51,1a26.85,26.85,0,0,0-3.6,1.8,4.41,4.41,0,0,1-1,.54,23.28,23.28,0,0,0,4.75,10.41,10.74,10.74,0,0,0,8.55,3.87q4.69,0,10.79-3.38a6.27,6.27,0,0,1,2.51-1,1.89,1.89,0,0,1,1.2.44,2.28,2.28,0,0,1,.76,1.63,1.85,1.85,0,0,1-.65,1.58,12.47,12.47,0,0,1-2.07,1.15,62.45,62.45,0,0,1-6.76,2.61,19.3,19.3,0,0,1-5.78.88,14.21,14.21,0,0,1-9.81-3.6,22,22,0,0,1-6.05-9.54,40,40,0,0,1-2-12.92,42.76,42.76,0,0,1,1.19-10.57c.15-.51.33-1.4.55-2.67a9.54,9.54,0,0,1,1.09-3.21,2,2,0,0,1,1.85-1.09,2.42,2.42,0,0,1,1.58.59,2,2,0,0,1,.71,1.58l-.22.88a36.35,36.35,0,0,0-2.83,14.6c0,1.53,0,2.66.11,3.38q15.48-7.08,28-9A12.6,12.6,0,0,1,153.73,63.51Z"/><path class="cls-1" d="M222.84,88.25a1.91,1.91,0,0,1-.66,1.47,2.16,2.16,0,0,1-1.52.6,9.21,9.21,0,0,1-3-1A43.46,43.46,0,0,1,213,87.05a32.78,32.78,0,0,1-3.49-2.18,26.37,26.37,0,0,1-9.48,5.67,1.55,1.55,0,0,1,.11.65,2.09,2.09,0,0,1-.55,1.47,1.92,1.92,0,0,1-1.53.6A29.17,29.17,0,0,1,184,89.61a27.66,27.66,0,0,1-10.57-9.75A22.88,22.88,0,0,1,170,67.43a26.2,26.2,0,0,1,2.24-10.57,27.11,27.11,0,0,1,6.26-8.94,23.48,23.48,0,0,1,8.18-5,29.14,29.14,0,0,1,21.36.71A23.08,23.08,0,0,1,217,50.43a20,20,0,0,1,4.14,12.42,18.67,18.67,0,0,1-.43,4.25,26.61,26.61,0,0,1-3,7.8,38.16,38.16,0,0,1-5.4,7.36,29.26,29.26,0,0,0,8.29,3.7,6.07,6.07,0,0,1,1.63.71,1.83,1.83,0,0,1,.66,1.36Zm-16.68-5.67Q198,76.6,195,72.45a2.51,2.51,0,0,1-.54-1.64,2.31,2.31,0,0,1,.6-1.63,1.91,1.91,0,0,1,1.47-.66,2,2,0,0,1,1.74,1.09q3.27,5.34,10.58,10.47a31.45,31.45,0,0,0,6-8.34A19.84,19.84,0,0,0,217.17,63a15.78,15.78,0,0,0-2.94-9.37,20.19,20.19,0,0,0-7.8-6.49,23.15,23.15,0,0,0-10.19-2.34,22.38,22.38,0,0,0-10.14,2.4,21.9,21.9,0,0,0-8.93,8.45,22.49,22.49,0,0,0-3.38,11.82,20.55,20.55,0,0,0,2,8.72,22,22,0,0,0,7.47,8.56,23.18,23.18,0,0,0,10.84,4.19,2.17,2.17,0,0,1,.44-1,2.53,2.53,0,0,1,1.74-.87,10.51,10.51,0,0,0,1.53-.22Q201.58,86.19,206.16,82.58Z"/><path class="cls-1" d="M240.49,48.57a70.06,70.06,0,0,0-2.28,18,66.36,66.36,0,0,0,.65,9.48Q241,89.78,248,89.78a9,9,0,0,0,7-3.33,37.91,37.91,0,0,0,5.28-8.23,82.3,82.3,0,0,0,7-25.39c.14-1.38.29-3,.43-4.91s.22-3.6.22-5.12l-.11-2.29a4.51,4.51,0,0,1,.11-1.2,2.47,2.47,0,0,1,.82-1.36,2.07,2.07,0,0,1,1.36-.49,2,2,0,0,1,1.31.43,2.88,2.88,0,0,1,.87,2.29,7.24,7.24,0,0,1-.11,1.31,7.26,7.26,0,0,0-.11,1.09,133.4,133.4,0,0,1-5.66,30.74q-4.37,13.52-12.32,18.31a11.31,11.31,0,0,1-6.21,1.74,9.44,9.44,0,0,1-7.09-2.94,19.59,19.59,0,0,1-5.28-10.35A72.28,72.28,0,0,1,234.28,66a111.79,111.79,0,0,1,1.2-14.49c0-.22.06-.77.16-1.64a11.78,11.78,0,0,1,.71-2.72,2,2,0,0,1,2.07-1.42,2,2,0,0,1,1.64.87A2.37,2.37,0,0,1,240.49,48.57Z"/><path class="cls-1" d="M337.45,35.93a15.16,15.16,0,0,1,3.11-.33c2.18,0,3.27.73,3.27,2.18,0,1-.28,1.66-.82,1.91a3.62,3.62,0,0,1-1.8.33c-.65,0-1.09-.06-1.31-.06a17,17,0,0,0-4.63.66l-2.78.76a125.7,125.7,0,0,0-20.66,8.12q-11.59,5.61-23.59,12.7c-.59.36-1.13.73-1.64,1.09s-1.05.73-1.63,1.09l-1.15.82a2.67,2.67,0,0,1-1.58.6,2,2,0,0,1-1.58-.66,2.16,2.16,0,0,1-.6-1.52,2.12,2.12,0,0,1,1-1.86,227.83,227.83,0,0,1,27.52-14.88q17.28-8.12,27-10.51C335.76,36.29,336.4,36.15,337.45,35.93Zm-.16,27.58a2,2,0,0,1,1.85.87,2.21,2.21,0,0,1,.44,1.42,2.06,2.06,0,0,1-1.09,1.85,3.14,3.14,0,0,1-1.59.33h-1.58a14.33,14.33,0,0,0-2,.32c-.58.15-1.09.26-1.52.33a87,87,0,0,0-16.9,5.12l-2.51,1a26.72,26.72,0,0,0-3.59,1.8,4.91,4.91,0,0,1-1,.54,23.17,23.17,0,0,0,4.74,10.41,10.75,10.75,0,0,0,8.55,3.87q4.69,0,10.8-3.38a6.25,6.25,0,0,1,2.5-1,1.87,1.87,0,0,1,1.2.44,2.28,2.28,0,0,1,.76,1.63,1.82,1.82,0,0,1-.65,1.58,12.47,12.47,0,0,1-2.07,1.15,62.45,62.45,0,0,1-6.76,2.61,19.25,19.25,0,0,1-5.78.88,14.21,14.21,0,0,1-9.81-3.6,22.05,22.05,0,0,1-6-9.54,40,40,0,0,1-2-12.92,42.74,42.74,0,0,1,1.2-10.57q.21-.76.54-2.67a9.54,9.54,0,0,1,1.09-3.21A2.06,2.06,0,0,1,308,51.74a2.45,2.45,0,0,1,1.59.59,2,2,0,0,1,.7,1.58l-.21.88a36.35,36.35,0,0,0-2.84,14.6c0,1.53,0,2.66.11,3.38q15.48-7.08,28-9A12.7,12.7,0,0,1,337.29,63.51Z"/><path class="cls-1" d="M407.37,40.18a2.29,2.29,0,0,1-.65,1.58,1.83,1.83,0,0,1-1.64.6L403,42.25q-6.43,0-15.59,3a123.31,123.31,0,0,0-17,7.09,82.69,82.69,0,0,0-8.67,5.23,27.45,27.45,0,0,0-5.94,5.23,3.24,3.24,0,0,0-.65,1.64,3.51,3.51,0,0,0,1,2,21.63,21.63,0,0,0,6.87,5,72.88,72.88,0,0,0,11,4.91q5.12,1.74,12.86,3.6A4,4,0,0,1,389,81a2.55,2.55,0,0,1,.87,1.91,3.33,3.33,0,0,1-.22,1q-1.41,3.7-14.49,8c-3.27,1-6.11,1.81-8.5,2.4l-4.26.87c-1.52.22-2.39.32-2.61.32a3.44,3.44,0,0,1-1-.1,1.77,1.77,0,0,1-1.64-1.86,2.34,2.34,0,0,1,.71-1.69,2.75,2.75,0,0,1,1.69-.81,51.09,51.09,0,0,0,9.37-1.31c2.55-.66,5.49-1.58,8.83-2.78a32.47,32.47,0,0,0,7.2-3.33l-8-2.18a110.05,110.05,0,0,1-11.66-4.63,46.85,46.85,0,0,1-9.59-5.5c-3.06-2.4-4.58-4.65-4.58-6.76s1.49-4.54,4.47-7.09a65.2,65.2,0,0,1,11.33-7.52A126.61,126.61,0,0,1,385,42.09a69.68,69.68,0,0,1,17.33-4l2.07-.11c1.38,0,2.29.4,2.72,1.2A3.33,3.33,0,0,1,407.37,40.18Z"/><path class="cls-1" d="M471.52,45.47a2.06,2.06,0,0,1,1.69,2.12c0,1.38-.73,2.07-2.18,2.07a10,10,0,0,1-1.42-.21,11.53,11.53,0,0,0-3.71-.55c-.58,0-1.74.07-3.48.22a58.66,58.66,0,0,0-10.25,1.2,1.89,1.89,0,0,1-.11.76,16.79,16.79,0,0,0-.65,5.12c0,1.31.07,3.2.22,5.67q.31,7.84,1.36,16.79a116,116,0,0,0,2.78,15.69,2.34,2.34,0,0,1-.49,2.24,2.5,2.5,0,0,1-1.91.93,2,2,0,0,1-1.74-1.09,10.74,10.74,0,0,1-1-4.58c-.21-3.13-.45-5.92-.7-8.4s-.46-4.54-.6-6.21q-1.63-15.58-1.64-21.69a29.28,29.28,0,0,1,.11-3,7.79,7.79,0,0,1,.11-1.42q-5.57,1.2-14.72,3.71-6.21,1.64-14.71,4.36c-.51.14-1.38.45-2.62.92a8.77,8.77,0,0,1-3.05.71,1.88,1.88,0,0,1-1.52-.65,2.45,2.45,0,0,1-.55-1.64,2.11,2.11,0,0,1,.44-1.25,2.19,2.19,0,0,1,1.2-.82q4.91-1.31,11.55-3.16,12.53-3.37,19.67-5t14.88-2.62a83.4,83.4,0,0,1,8.72-.65A15.68,15.68,0,0,1,471.52,45.47Z"/></svg>